<svg xmlns="http://www.w3.org/2000/svg" width="16.706" height="16.21" viewBox="0 0 16.706 16.21">
  <defs>
    <style>
      .cls-1 {
        fill: #fff;
      }
    </style>
  </defs>
  <path id="person_FILL1_wght400_GRAD0_opsz48" class="cls-1" d="M16.353,16.781a3.755,3.755,0,0,1-3.915-3.915A3.755,3.755,0,0,1,16.353,8.95a3.755,3.755,0,0,1,3.915,3.915,3.755,3.755,0,0,1-3.915,3.915ZM8,25.16V22.706a2.873,2.873,0,0,1,.5-1.7,3.184,3.184,0,0,1,1.279-1.07,19.621,19.621,0,0,1,3.354-1.175,13.559,13.559,0,0,1,3.224-.392,12.989,12.989,0,0,1,3.211.4A22.236,22.236,0,0,1,22.9,19.939a3.147,3.147,0,0,1,1.305,1.07,2.873,2.873,0,0,1,.5,1.7V25.16Z" transform="translate(-8 -8.95)"/>
</svg>
