<svg xmlns="http://www.w3.org/2000/svg" width="12.968" height="16.21" viewBox="0 0 12.968 16.21">
  <defs>
    <style>
      .cls-1 {
        fill: #fff;
      }
    </style>
  </defs>
  <path id="notifications_FILL1_wght400_GRAD0_opsz48_1_" data-name="notifications_FILL1_wght400_GRAD0_opsz48 (1)" class="cls-1" d="M8,17.779V16.563H9.7v-6.2a4.892,4.892,0,0,1,1-3.029,4.323,4.323,0,0,1,2.644-1.672V5.074a1,1,0,0,1,.334-.77,1.206,1.206,0,0,1,1.6,0,1,1,0,0,1,.334.77v.588a4.364,4.364,0,0,1,2.654,1.672,4.86,4.86,0,0,1,1.013,3.029v6.2h1.682v1.216Zm6.484,2.431a1.571,1.571,0,0,1-1.135-.476,1.545,1.545,0,0,1-.486-1.145H16.1a1.626,1.626,0,0,1-1.621,1.621Z" transform="translate(-8 -4)"/>
</svg>
