<svg xmlns="http://www.w3.org/2000/svg" xmlns:xlink="http://www.w3.org/1999/xlink" width="165.695" height="18.524" viewBox="0 0 165.695 18.524">
  <defs>
    <style>
      .cls-1 {
        fill: url(#linear-gradient);
      }
    </style>
    <linearGradient id="linear-gradient" x1="0.148" y1="-0.158" x2="1" y2="1" gradientUnits="objectBoundingBox">
      <stop offset="0" stop-color="#f4db4f"/>
      <stop offset="1" stop-color="#22ffd4"/>
    </linearGradient>
  </defs>
  <g id="Group_46026" data-name="Group 46026" transform="translate(43.906 -60.359)">
    <path id="Path_17715" data-name="Path 17715" class="cls-1" d="M9.718,0h54.8L56.8,18.524H2Z" transform="translate(57.27 60.359)"/>
    <path id="Path_17717" data-name="Path 17717" d="M-25.5-.977V-3.815h3.859V-.977Zm7.718,0v-1.93h1.93v-1.93h1.93v-1.93h-1.93V-8.7h-1.93v-1.93h3.859V-8.7h3.859v-1.93H-6.2V-8.7h-1.93v1.93h-1.93v1.93h1.93v1.93H-6.2v1.93h-3.859v-1.93h-3.859v1.93Zm19.3,0V-6.766H-.415V-8.7h-1.93v-1.93H1.514V-8.7H5.373v-1.93H9.232V-8.7H7.3v1.93H5.373V-.977Zm11.577,0V-4.836h1.93v-1.93h1.93V-8.7H13.092v-1.93H20.81v3.859H18.88v1.93h-1.93v1.93H20.81v1.93Z" transform="translate(89.537 75.365)"/>
    <path id="Path_17716" data-name="Path 17716" d="M-57.375-.977v-9.648h3.859V-8.7h1.93v1.93h1.93v-3.859H-45.8V-.977h-3.859v-1.93h-1.93v-1.93h-1.93V-.977Zm17.366,0v-1.93h-1.93V-8.7h1.93v-1.93h5.789V-8.7h1.93v5.789h-1.93v1.93Zm1.93-2.007h1.93v-5.63h-1.93Zm9.648,2.007v-9.648h7.718V-8.7h1.93v5.789h-1.93v1.93Zm3.859-1.93h1.852V-8.7h-1.852Zm9.648,1.93v-9.648h7.718V-8.7h-3.859v1.93h3.859v1.93h-3.859v1.93h3.859v1.93Zm11.577,0v-9.648H.512v3.859h1.93v-3.859H6.3V-.977H2.442V-4.836H.512V-.977Zm15.437,0v-1.93H10.16v-7.718H14.02v7.718h1.93v-7.718h3.859v7.718h-1.93v1.93Zm11.577,0v-9.648h3.859V-8.7h1.93v1.93h1.93v-3.859h3.859V-.977H31.386v-1.93h-1.93v-1.93h-1.93V-.977Zm17.366,0V-8.7H39.1v-1.93h7.718V-8.7h-1.93V-.977Z" transform="translate(13.469 75.365)"/>
  </g>
</svg>
